<?xml version="1.0" encoding="UTF-8" standalone="no"?>
<svg
   xmlns:dc="http://purl.org/dc/elements/1.1/"
   xmlns:cc="http://creativecommons.org/ns#"
   xmlns:rdf="http://www.w3.org/1999/02/22-rdf-syntax-ns#"
   xmlns:svg="http://www.w3.org/2000/svg"
   xmlns="http://www.w3.org/2000/svg"
   xmlns:sodipodi="http://sodipodi.sourceforge.net/DTD/sodipodi-0.dtd"
   xmlns:inkscape="http://www.inkscape.org/namespaces/inkscape"
   id="Layer_1"
   data-name="Layer 1"
   viewBox="0 0 105.2 107.00052"
   version="1.1"
   sodipodi:docname="sight-sounds-logo-only.svg"
   inkscape:version="0.92.2 (5c3e80d, 2017-08-06)"
   width="105.2"
   height="107.00052">
  <metadata
     id="metadata58">
    <rdf:RDF>
      <cc:Work
         rdf:about="">
        <dc:format>image/svg+xml</dc:format>
        <dc:type
           rdf:resource="http://purl.org/dc/dcmitype/StillImage" />
        <dc:title>Sights and Sounds Logo Only</dc:title>
      </cc:Work>
    </rdf:RDF>
  </metadata>
  <sodipodi:namedview
     pagecolor="#ffffff"
     bordercolor="#666666"
     borderopacity="1"
     objecttolerance="10"
     gridtolerance="10"
     guidetolerance="10"
     inkscape:pageopacity="0"
     inkscape:pageshadow="2"
     inkscape:window-width="1971"
     inkscape:window-height="1250"
     id="namedview56"
     showgrid="false"
     inkscape:zoom="1.18"
     inkscape:cx="45.1"
     inkscape:cy="3.0005206"
     inkscape:window-x="2743"
     inkscape:window-y="379"
     inkscape:window-maximized="0"
     inkscape:current-layer="Layer_1"
     fit-margin-top="0"
     fit-margin-left="0"
     fit-margin-right="0"
     fit-margin-bottom="0" />
  <defs
     id="defs37">
    <style
       id="style35">.cls-1{fill:#fff;}.cls-2,.cls-4{fill:#293c5d;}.cls-3{fill:#da251e;}.cls-4{font-size:40.28px;font-family:Stark, Stark;}.cls-5{letter-spacing:-0.01em;}</style>
    <style
       id="style35-8">.cls-1{fill:#fff;}.cls-2,.cls-4{fill:#293c5d;}.cls-3{fill:#da251e;}.cls-4{font-size:40.28px;font-family:Stark, Stark;}.cls-5{letter-spacing:-0.01em;}</style>
  </defs>
  <title
     id="title39">Sight Sound Logo Only</title>
  <path
     class="cls-2"
     d="M 1.8,55.75 A 51,51 0 0 0 7.55,79.36 L 11.24,72.3 A 45,45 0 0 1 42.74,12 L 46.42,4.95 A 51.25,51.25 0 0 0 1.8,55.75 Z M 78.41,92.87 A 44.94,44.94 0 0 1 27.14,92.49 l -6.35,3.07 a 51.22,51.22 0 0 0 64.07,0.37 z m -18.8,-88 3.62,7 A 45,45 0 0 1 94.57,73 l 3.61,7 A 51.26,51.26 0 0 0 59.61,4.87 Z"
     id="path43"
     inkscape:connector-curvature="0"
     style="fill:#293c5d" />
  <path
     class="cls-2"
     d="M 12.59,55.75 A 40.34,40.34 0 0 0 14.1,66.8 L 19.78,56 V 55.8 A 33.24,33.24 0 0 1 34.19,28.39 L 39.86,17.54 A 40.48,40.48 0 0 0 12.59,55.75 Z M 65.34,86.67 A 33.29,33.29 0 0 1 39.92,86.32 l -8.06,3.89 a 40.42,40.42 0 0 0 41.75,0.38 z m 0.69,-69.25 5.47,10.64 a 33.23,33.23 0 0 1 14.82,27.69 c 0,0.38 0,0.76 0,1.15 l 5.47,10.64 A 40.53,40.53 0 0 0 66.05,17.42 Z"
     id="path45"
     inkscape:connector-curvature="0"
     style="fill:#293c5d" />
  <path
     class="cls-3"
     d="M 53.1,0 0,101.61 52.15,76.43 105.2,101.61 Z m -32.37,82.72 5.39,-9.89 26.08,-13.49 18,9 -7.19,-15.29 H 36.86 l 15.29,-29.67 9.89,18 h -6.29 l -3.6,-7.19 -6.29,13.49 H 65.64 L 80.92,78.25 52.15,65.66 Z"
     id="path47"
     inkscape:connector-curvature="0"
     style="fill:#da251e" />
</svg>
