<?xml version="1.0" encoding="UTF-8" standalone="no"?>
<svg
   xmlns:dc="http://purl.org/dc/elements/1.1/"
   xmlns:cc="http://creativecommons.org/ns#"
   xmlns:rdf="http://www.w3.org/1999/02/22-rdf-syntax-ns#"
   xmlns:svg="http://www.w3.org/2000/svg"
   xmlns="http://www.w3.org/2000/svg"
   xmlns:sodipodi="http://sodipodi.sourceforge.net/DTD/sodipodi-0.dtd"
   xmlns:inkscape="http://www.inkscape.org/namespaces/inkscape"
   id="Layer_1"
   data-name="Layer 1"
   viewBox="0 0 324.82925 157.17999"
   version="1.1"
   sodipodi:docname="sights-sounds-logo.svg"
   width="324.82925"
   height="157.17999"
   inkscape:version="0.92.2 (5c3e80d, 2017-08-06)">
  <metadata
     id="metadata33">
    <rdf:RDF>
      <cc:Work
         rdf:about="">
        <dc:format>image/svg+xml</dc:format>
        <dc:type
           rdf:resource="http://purl.org/dc/dcmitype/StillImage" />
        <dc:title>Sights and Sounds Full Logo</dc:title>
      </cc:Work>
    </rdf:RDF>
  </metadata>
  <sodipodi:namedview
     pagecolor="#ffffff"
     bordercolor="#666666"
     borderopacity="1"
     objecttolerance="10"
     gridtolerance="10"
     guidetolerance="10"
     inkscape:pageopacity="0"
     inkscape:pageshadow="2"
     inkscape:window-width="1975"
     inkscape:window-height="1261"
     id="namedview31"
     showgrid="false"
     fit-margin-top="0"
     fit-margin-left="0"
     fit-margin-right="0"
     fit-margin-bottom="0"
     inkscape:zoom="1.7163636"
     inkscape:cx="137.89778"
     inkscape:cy="-97.240177"
     inkscape:window-x="2524"
     inkscape:window-y="438"
     inkscape:window-maximized="0"
     inkscape:current-layer="Layer_1" />
  <defs
     id="defs12">
    <style
       id="style10">.cls-1{fill:#fff;}.cls-2,.cls-4{fill:#293c5d;}.cls-3{fill:#da251e;}.cls-4{font-size:40.28px;font-family:Stark, Stark;}.cls-5{letter-spacing:-0.01em;}</style>
  </defs>
  <title
     id="title14">sightArtboard 1 copy</title>
  <path
     class="cls-2"
     d="m 100.00513,55.75 a 51,51 0 0 0 5.75,23.61 l 3.69,-7.06 a 45,45 0 0 1 31.5,-60.3 l 3.68,-7.05 a 51.25,51.25 0 0 0 -44.62,50.8 z m 76.61,37.12 a 44.94,44.94 0 0 1 -51.27,-0.38 l -6.35,3.07 a 51.22,51.22 0 0 0 64.07,0.37 z m -18.8,-88 3.62,7 a 45,45 0 0 1 31.34,61.13 l 3.61,7 a 51.26,51.26 0 0 0 -38.57,-75.13 z"
     id="path18"
     inkscape:connector-curvature="0"
     style="fill:#293c5d" />
  <path
     class="cls-2"
     d="m 110.79513,55.75 a 40.34,40.34 0 0 0 1.51,11.05 l 5.68,-10.8 v -0.2 a 33.24,33.24 0 0 1 14.41,-27.41 l 5.67,-10.85 a 40.48,40.48 0 0 0 -27.27,38.21 z m 52.75,30.92 a 33.29,33.29 0 0 1 -25.42,-0.35 l -8.06,3.89 a 40.42,40.42 0 0 0 41.75,0.38 z m 0.69,-69.25 5.47,10.64 a 33.23,33.23 0 0 1 14.82,27.69 c 0,0.38 0,0.76 0,1.15 l 5.47,10.64 a 40.53,40.53 0 0 0 -25.74,-50.12 z"
     id="path20"
     inkscape:connector-curvature="0"
     style="fill:#293c5d" />
  <path
     class="cls-3"
     d="m 151.30513,0 -53.099997,101.61 52.149997,-25.18 53.05,25.18 z m -32.37,82.72 5.39,-9.89 26.08,-13.49 18,9 -7.19,-15.29 h -26.15 l 15.29,-29.67 9.89,18 h -6.29 l -3.6,-7.19 -6.29,13.49 h 19.78 l 15.28,30.57 -28.77,-12.59 z"
     id="path22"
     inkscape:connector-curvature="0"
     style="fill:#da251e" />
  <g
     aria-label="Sights and Sounds"
     style="font-size:40.27999878px;font-family:Stark, Stark;fill:#293c5d"
     id="text28">
    <path
       d="m 7.752893,147.43224 c 3.14184,-0.2014 5.4378,-1.65148 6.92816,-4.35024 1.12784,-2.13484 1.36952,-4.30996 0.68476,-6.52536 -0.68476,-2.25568 -2.05428,-3.94744 -4.18912,-5.035 l -4.67248,-2.6182 c -1.08756,-0.56392 -1.8125999,-1.45008 -2.1751199,-2.65848 -0.36252,-1.16812 -0.28196,-2.33624 0.32224,-3.46408 1.0472799,-1.4098 2.2959599,-2.17512 3.7460399,-2.2154 1.4097999,-0.0403 2.69876,0.52364 3.86688,1.69176 l 3.30296,-2.37652 c -1.85288,-2.45708 -4.35024,-3.58492 -7.53236,-3.38352 -3.1821199,0.24168 -5.5183599,1.69176 -6.9684398,4.39052 -1.12783999,2.13484 -1.36951998,4.30996 -0.68476,6.52536 0.68476,2.25568 2.0542799,3.94744 4.1891199,5.035 l 4.6724798,2.6182 c 1.0875601,0.56392 1.8126001,1.45008 2.1751201,2.6182 0.36252,1.2084 0.28196,2.37652 -0.32224,3.50436 -1.04728,1.4098 -2.2959601,2.17512 -3.74604,2.2154 -1.4098,0.0403 -2.6987599,-0.52364 -3.8668799,-1.69176 L 0.18025321,144.089 c 1.89315989,2.45708 4.39051989,3.58492 7.57263979,3.34324 z"
       style="letter-spacing:-0.01em"
       id="path23" />
    <path
       d="m 19.372415,126.97 v 20.14 h 4.027999 v -20.14 z m 0.32224,-9.34496 c -0.48336,0.48336 -0.72504,1.04728 -0.72504,1.73204 0,0.68476 0.24168,1.24868 0.72504,1.69176 0.44308,0.48336 1.007,0.72504 1.69176,0.72504 0.68476,0 1.24868,-0.24168 1.732039,-0.72504 0.48336,-0.44308 0.72504,-1.007 0.72504,-1.69176 0,-0.68476 -0.24168,-1.28896 -0.72504,-1.73204 C 22.675375,117.14168 22.071175,116.9 21.386415,116.9 c -0.68476,0 -1.24868,0.24168 -1.69176,0.72504 z"
       style="letter-spacing:-0.01em"
       id="path25" />
    <path
       d="m 43.961132,147.11 c 0,1.65148 -0.6042,3.10156 -1.77232,4.26968 -1.16812,1.16812 -2.6182,1.77232 -4.26968,1.77232 -1.65148,0 -3.10156,-0.6042 -4.26968,-1.77232 l -2.85988,2.85988 c 1.97372,1.97372 4.35024,2.94044 7.12956,2.94044 2.77932,0 5.15584,-0.96672 7.12956,-2.94044 1.97372,-2.014 2.94044,-4.39052 2.94044,-7.12956 v -20.14 h -2.014 l -2.014,2.014 c -1.77232,-1.32924 -3.78632,-2.014 -6.042,-2.014 -2.77932,0 -5.15584,0.96672 -7.12956,2.94044 -1.973719,1.97372 -2.940439,4.35024 -2.940439,7.12956 0,2.77932 0.96672,5.15584 2.940439,7.12956 1.97372,1.97372 4.35024,2.94044 7.12956,2.94044 2.2154,0 4.2294,-0.68476 6.042,-2.014 z m -10.31168,-5.80032 c -1.16812,-1.16812 -1.77232,-2.6182 -1.77232,-4.26968 0,-1.65148 0.6042,-3.10156 1.77232,-4.26968 1.16812,-1.16812 2.6182,-1.77232 4.26968,-1.77232 1.65148,0 3.10156,0.6042 4.26968,1.77232 1.16812,1.16812 1.77232,2.6182 1.77232,4.26968 0,1.65148 -0.6042,3.10156 -1.77232,4.26968 -1.16812,1.16812 -2.6182,1.77232 -4.26968,1.77232 -1.65148,0 -3.10156,-0.6042 -4.26968,-1.77232 z"
       style=""
       id="path27" />
    <path
       d="m 68.113398,137.04 v 10.07 h 4.027999 v -10.07 c 0,-2.77932 -0.966719,-5.15584 -2.940439,-7.12956 -1.97372,-1.97372 -4.35024,-2.94044 -7.12956,-2.94044 -2.2154,0 -4.2294,0.68476 -6.042,2.014 V 116.9 h -4.028 v 30.21 h 4.028 v -10.31168 c 0.04028,-1.6112 0.68476,-2.98072 1.85288,-4.10856 1.16812,-1.12784 2.53764,-1.69176 4.18912,-1.69176 1.65148,0 3.10156,0.6042 4.26968,1.77232 1.16812,1.16812 1.77232,2.6182 1.77232,4.26968 z"
       style=""
       id="path29" />
    <path
       d="M 80.181664,126.97 V 116.9 h -4.028 v 21.63036 c 0,2.37652 0.84588,4.4308 2.49736,6.08228 1.65148,1.65148 3.665479,2.49736 6.041999,2.49736 v -4.028 c -1.24868,0 -2.29596,-0.44308 -3.18212,-1.32924 -0.88616,-0.88616 -1.329239,-1.97372 -1.329239,-3.2224 V 130.998 h 4.027999 v -4.028 z"
       style=""
       id="path31" />
    <path
       d="m 91.883001,137.88588 3.34324,1.8126 c 0.52364,0.24168 0.84588,0.64448 0.96672,1.16812 0.12084,0.52364 0.04028,1.04728 -0.24168,1.57092 -0.32224,0.6042 -0.84588,0.96672 -1.6112,1.007 -0.76532,0.0403 -1.32924,-0.24168 -1.73204,-0.76532 l -3.34324,2.2154 c 1.36952,1.77232 3.14184,2.6182 5.31696,2.49736 2.2154,-0.0806 3.86688,-1.08756 4.91416,-3.021 0.845879,-1.49036 1.006999,-3.021 0.563919,-4.6322 -0.443079,-1.57092 -1.409799,-2.77932 -2.900159,-3.58492 l -3.34324,-1.8126 c -0.52364,-0.24168 -0.84588,-0.64448 -0.96672,-1.16812 -0.12084,-0.52364 -0.04028,-1.04728 0.24168,-1.57092 0.32224,-0.6042 0.84588,-0.96672 1.6112,-1.007 0.76532,-0.0403 1.32924,0.24168 1.73204,0.76532 l 3.34324,-2.2154 c -1.36952,-1.77232 -3.14184,-2.6182 -5.31696,-2.49736 -2.2154,0.0806 -3.86688,1.08756 -4.91416,3.021 -0.84588,1.49036 -1.007,3.021 -0.56392,4.6322 0.44308,1.57092 1.4098,2.77932 2.90016,3.58492 z"
       style=""
       id="path33" />
    <path
       d="m 130.50019,145.096 2.014,2.014 h 2.014 v -20.14 h -4.028 v 2.014 c -1.8126,-1.32924 -3.8266,-2.014 -6.042,-2.014 -2.77932,0 -5.15584,0.96672 -7.12956,2.94044 -1.97371,1.97372 -2.94043,4.35024 -2.94043,7.12956 0,2.77932 0.96672,5.15584 2.94043,7.12956 1.97372,1.97372 4.35024,2.94044 7.12956,2.94044 2.25568,0 4.26968,-0.68476 6.042,-2.014 z m -10.31168,-3.78632 c -1.16812,-1.16812 -1.77232,-2.6182 -1.77232,-4.26968 0,-1.65148 0.6042,-3.10156 1.77232,-4.26968 1.16812,-1.16812 2.6182,-1.77232 4.26968,-1.77232 1.65148,0 3.10156,0.6042 4.26968,1.77232 1.16812,1.16812 1.77232,2.6182 1.77232,4.26968 0,1.65148 -0.6042,3.10156 -1.77232,4.26968 -1.16812,1.16812 -2.6182,1.77232 -4.26968,1.77232 -1.65148,0 -3.10156,-0.6042 -4.26968,-1.77232 z"
       style=""
       id="path35" />
    <path
       d="m 144.42134,132.68976 c 1.16812,-1.12784 2.53764,-1.69176 4.18912,-1.69176 1.65148,0 3.10156,0.6042 4.26968,1.77232 1.16812,1.16812 1.77232,2.6182 1.77232,4.26968 v 10.07 h 4.028 v -10.07 c 0,-2.77932 -0.96672,-5.15584 -2.94044,-7.12956 -1.97372,-1.97372 -4.35024,-2.94044 -7.12956,-2.94044 -2.2154,0 -4.2294,0.68476 -6.042,2.014 l -2.014,-2.014 h -2.014 v 20.14 h 4.028 v -10.31168 c 0.0403,-1.6112 0.68476,-2.98072 1.85288,-4.10856 z"
       style=""
       id="path37" />
    <path
       d="m 178.80473,145.096 2.014,2.014 h 2.014 V 116.9 h -4.028 v 12.084 c -1.8126,-1.32924 -3.8266,-2.014 -6.042,-2.014 -2.77932,0 -5.15584,0.96672 -7.12956,2.94044 -1.97372,1.97372 -2.94044,4.35024 -2.94044,7.12956 0,2.77932 0.96672,5.15584 2.94044,7.12956 1.97372,1.97372 4.35024,2.94044 7.12956,2.94044 2.25568,0 4.26968,-0.68476 6.042,-2.014 z m -10.31168,-3.78632 c -1.16812,-1.16812 -1.77232,-2.6182 -1.77232,-4.26968 0,-1.65148 0.6042,-3.10156 1.77232,-4.26968 1.16812,-1.16812 2.6182,-1.77232 4.26968,-1.77232 1.65148,0 3.10156,0.6042 4.26968,1.77232 1.16812,1.16812 1.77232,2.6182 1.77232,4.26968 0,1.65148 -0.6042,3.10156 -1.77232,4.26968 -1.16812,1.16812 -2.6182,1.77232 -4.26968,1.77232 -1.65148,0 -3.10156,-0.6042 -4.26968,-1.77232 z"
       style=""
       id="path39" />
    <path
       d="m 204.64875,147.43224 c 3.14184,-0.2014 5.4378,-1.65148 6.92816,-4.35024 1.12784,-2.13484 1.36952,-4.30996 0.68476,-6.52536 -0.68476,-2.25568 -2.05428,-3.94744 -4.18912,-5.035 l -4.67248,-2.6182 c -1.08756,-0.56392 -1.8126,-1.45008 -2.17512,-2.65848 -0.36252,-1.16812 -0.28196,-2.33624 0.32224,-3.46408 1.04728,-1.4098 2.29596,-2.17512 3.74604,-2.2154 1.4098,-0.0403 2.69876,0.52364 3.86688,1.69176 l 3.30296,-2.37652 c -1.85288,-2.45708 -4.35024,-3.58492 -7.53236,-3.38352 -3.18212,0.24168 -5.51836,1.69176 -6.96844,4.39052 -1.12784,2.13484 -1.36952,4.30996 -0.68476,6.52536 0.68476,2.25568 2.05428,3.94744 4.18912,5.035 l 4.67248,2.6182 c 1.08756,0.56392 1.8126,1.45008 2.17512,2.6182 0.36252,1.2084 0.28196,2.37652 -0.32224,3.50436 -1.04728,1.4098 -2.29596,2.17512 -3.74604,2.2154 -1.4098,0.0403 -2.69876,-0.52364 -3.86688,-1.69176 l -3.30296,2.37652 c 1.89316,2.45708 4.39052,3.58492 7.57264,3.34324 z"
       style=""
       id="path41" />
    <path
       d="m 219.60207,129.91044 c -1.97372,1.97372 -2.94044,4.35024 -2.94044,7.12956 0,2.77932 0.96672,5.15584 2.94044,7.12956 1.97372,1.97372 4.35024,2.94044 7.12956,2.94044 2.77932,0 5.15584,-0.96672 7.12956,-2.94044 1.97372,-1.97372 2.94044,-4.35024 2.94044,-7.12956 0,-2.77932 -0.96672,-5.15584 -2.94044,-7.12956 -1.97372,-1.97372 -4.35024,-2.94044 -7.12956,-2.94044 -2.77932,0 -5.15584,0.96672 -7.12956,2.94044 z m 2.85988,11.39924 c -1.16812,-1.16812 -1.77232,-2.6182 -1.77232,-4.26968 0,-1.65148 0.6042,-3.10156 1.77232,-4.26968 1.16812,-1.16812 2.6182,-1.77232 4.26968,-1.77232 1.65148,0 3.10156,0.6042 4.26968,1.77232 1.16812,1.16812 1.77232,2.6182 1.77232,4.26968 0,1.65148 -0.6042,3.10156 -1.77232,4.26968 -1.16812,1.16812 -2.6182,1.77232 -4.26968,1.77232 -1.65148,0 -3.10156,-0.6042 -4.26968,-1.77232 z"
       style=""
       id="path43" />
    <path
       d="m 255.07302,141.39024 c -1.16812,1.12784 -2.53764,1.69176 -4.18912,1.69176 -1.65148,0 -3.10156,-0.6042 -4.26968,-1.77232 -1.16812,-1.16812 -1.77232,-2.6182 -1.77232,-4.26968 v -10.07 h -4.028 v 10.07 c 0,2.77932 0.96672,5.15584 2.94044,7.12956 1.97372,1.97372 4.35024,2.94044 7.12956,2.94044 2.2154,0 4.2294,-0.68476 6.042,-2.014 l 2.014,2.014 h 2.014 v -20.14 h -4.028 v 10.31168 c -0.0403,1.6112 -0.68476,2.98072 -1.85288,4.10856 z"
       style=""
       id="path45" />
    <path
       d="m 270.84705,132.68976 c 1.16812,-1.12784 2.53764,-1.69176 4.18912,-1.69176 1.65148,0 3.10156,0.6042 4.26968,1.77232 1.16812,1.16812 1.77232,2.6182 1.77232,4.26968 v 10.07 h 4.028 v -10.07 c 0,-2.77932 -0.96672,-5.15584 -2.94044,-7.12956 -1.97372,-1.97372 -4.35024,-2.94044 -7.12956,-2.94044 -2.2154,0 -4.2294,0.68476 -6.042,2.014 l -2.014,-2.014 h -2.014 v 20.14 h 4.028 v -10.31168 c 0.0403,-1.6112 0.68476,-2.98072 1.85288,-4.10856 z"
       style=""
       id="path47" />
    <path
       d="m 305.23042,145.096 2.014,2.014 h 2.014 V 116.9 h -4.028 v 12.084 c -1.8126,-1.32924 -3.8266,-2.014 -6.042,-2.014 -2.77932,0 -5.15584,0.96672 -7.12956,2.94044 -1.97372,1.97372 -2.94044,4.35024 -2.94044,7.12956 0,2.77932 0.96672,5.15584 2.94044,7.12956 1.97372,1.97372 4.35024,2.94044 7.12956,2.94044 2.25568,0 4.26968,-0.68476 6.042,-2.014 z m -10.31168,-3.78632 c -1.16812,-1.16812 -1.77232,-2.6182 -1.77232,-4.26968 0,-1.65148 0.6042,-3.10156 1.77232,-4.26968 1.16812,-1.16812 2.6182,-1.77232 4.26968,-1.77232 1.65148,0 3.10156,0.6042 4.26968,1.77232 1.16812,1.16812 1.77232,2.6182 1.77232,4.26968 0,1.65148 -0.6042,3.10156 -1.77232,4.26968 -1.16812,1.16812 -2.6182,1.77232 -4.26968,1.77232 -1.65148,0 -3.10156,-0.6042 -4.26968,-1.77232 z"
       style=""
       id="path49" />
    <path
       d="m 316.41254,137.88588 3.34324,1.8126 c 0.52364,0.24168 0.84588,0.64448 0.96672,1.16812 0.12084,0.52364 0.0403,1.04728 -0.24168,1.57092 -0.32224,0.6042 -0.84588,0.96672 -1.6112,1.007 -0.76532,0.0403 -1.32924,-0.24168 -1.73204,-0.76532 l -3.34324,2.2154 c 1.36952,1.77232 3.14184,2.6182 5.31696,2.49736 2.2154,-0.0806 3.86688,-1.08756 4.91416,-3.021 0.84588,-1.49036 1.007,-3.021 0.56392,-4.6322 -0.44308,-1.57092 -1.4098,-2.77932 -2.90016,-3.58492 l -3.34324,-1.8126 c -0.52364,-0.24168 -0.84588,-0.64448 -0.96672,-1.16812 -0.12084,-0.52364 -0.0403,-1.04728 0.24168,-1.57092 0.32224,-0.6042 0.84588,-0.96672 1.6112,-1.007 0.76532,-0.0403 1.32924,0.24168 1.73204,0.76532 l 3.34324,-2.2154 c -1.36952,-1.77232 -3.14184,-2.6182 -5.31696,-2.49736 -2.2154,0.0806 -3.86688,1.08756 -4.91416,3.021 -0.84588,1.49036 -1.007,3.021 -0.56392,4.6322 0.44308,1.57092 1.4098,2.77932 2.90016,3.58492 z"
       style=""
       id="path51" />
  </g>
</svg>
